<?xml version="1.0" encoding="UTF-8" standalone="no"?>
<!-- Created with Inkscape (http://www.inkscape.org/) -->

<svg
   xmlns:dc="http://purl.org/dc/elements/1.1/"
   xmlns:cc="http://creativecommons.org/ns#"
   xmlns:rdf="http://www.w3.org/1999/02/22-rdf-syntax-ns#"
   xmlns:svg="http://www.w3.org/2000/svg"
   xmlns="http://www.w3.org/2000/svg"
   xmlns:xlink="http://www.w3.org/1999/xlink"
   xmlns:sodipodi="http://sodipodi.sourceforge.net/DTD/sodipodi-0.dtd"
   xmlns:inkscape="http://www.inkscape.org/namespaces/inkscape"
   version="1.0"
   width="375.48401"
   height="637.6861"
   id="svg7877"
   sodipodi:docname="USMC-E9-SGMMC (Red).svg"
   inkscape:version="0.92.0 r15299">
  <metadata
     id="metadata59">
    <rdf:RDF>
      <cc:Work
         rdf:about="">
        <dc:format>image/svg+xml</dc:format>
        <dc:type
           rdf:resource="http://purl.org/dc/dcmitype/StillImage" />
        <dc:title></dc:title>
      </cc:Work>
    </rdf:RDF>
  </metadata>
  <sodipodi:namedview
     pagecolor="#ffffff"
     bordercolor="#666666"
     borderopacity="1"
     objecttolerance="10"
     gridtolerance="10"
     guidetolerance="10"
     inkscape:pageopacity="0"
     inkscape:pageshadow="2"
     inkscape:window-width="1920"
     inkscape:window-height="1017"
     id="namedview57"
     showgrid="false"
     inkscape:snap-bbox="true"
     inkscape:snap-bbox-midpoints="true"
     inkscape:zoom="0.70710678"
     inkscape:cx="-66.7371"
     inkscape:cy="53.203656"
     inkscape:window-x="-8"
     inkscape:window-y="-8"
     inkscape:window-maximized="1"
     inkscape:current-layer="svg7877"
     showguides="true"
     inkscape:snap-center="true"
     inkscape:measure-start="0,0"
     inkscape:measure-end="0,0"
     inkscape:lockguides="false" />
  <defs
     id="defs7879">
    <linearGradient
       id="linearGradient3249">
      <stop
         style="stop-color:#ffea6e;stop-opacity:1"
         offset="0"
         id="stop3251" />
      <stop
         style="stop-color:#ffa522;stop-opacity:1"
         offset="1"
         id="stop3253" />
    </linearGradient>
    <linearGradient
       x1="-314.06058"
       y1="208.88521"
       x2="-317.98282"
       y2="219.09076"
       id="linearGradient2259"
       xlink:href="#linearGradient3249"
       gradientUnits="userSpaceOnUse" />
    <linearGradient
       x1="-332.39798"
       y1="197.18094"
       x2="-333.76141"
       y2="202.17006"
       id="linearGradient2261"
       xlink:href="#linearGradient3249"
       gradientUnits="userSpaceOnUse" />
    <linearGradient
       x1="-378.99609"
       y1="184.50377"
       x2="-380.9317"
       y2="189.93835"
       id="linearGradient2263"
       xlink:href="#linearGradient3249"
       gradientUnits="userSpaceOnUse" />
    <linearGradient
       x1="-378.99609"
       y1="184.50377"
       x2="-381.23193"
       y2="191.15224"
       id="linearGradient2265"
       xlink:href="#linearGradient3249"
       gradientUnits="userSpaceOnUse"
       gradientTransform="matrix(0.5248595,0.1146302,0.036197,0.3508621,-216.76051,153.25157)" />
    <linearGradient
       x1="-378.99609"
       y1="184.50377"
       x2="-381.23193"
       y2="191.15224"
       id="linearGradient2267"
       xlink:href="#linearGradient3249"
       gradientUnits="userSpaceOnUse"
       gradientTransform="matrix(0.4143867,0.05847172,0.00771036,0.3356828,-252.3959,139.00815)" />
    <linearGradient
       x1="-400.44263"
       y1="179.09914"
       x2="-403.08856"
       y2="186.76353"
       id="linearGradient2269"
       xlink:href="#linearGradient3249"
       gradientUnits="userSpaceOnUse"
       gradientTransform="rotate(-0.68710986,-415.80869,175.41891)" />
    <linearGradient
       x1="-400.44263"
       y1="179.09914"
       x2="-403.08856"
       y2="186.76353"
       id="linearGradient2271"
       xlink:href="#linearGradient3249"
       gradientUnits="userSpaceOnUse"
       gradientTransform="matrix(1.1209905,-0.1001961,0.1001961,1.1209905,51.387537,-54.461153)" />
    <linearGradient
       x1="-400.44263"
       y1="179.09914"
       x2="-403.08856"
       y2="186.76353"
       id="linearGradient2273"
       xlink:href="#linearGradient3249"
       gradientUnits="userSpaceOnUse"
       gradientTransform="matrix(1.1209905,-0.1001961,0.1001961,1.1209905,69.542592,-48.732859)" />
    <linearGradient
       x1="-400.44263"
       y1="179.09914"
       x2="-403.08856"
       y2="186.76353"
       id="linearGradient2275"
       xlink:href="#linearGradient3249"
       gradientUnits="userSpaceOnUse"
       gradientTransform="matrix(0.820453,-0.00983961,0.00983961,0.820453,-89.492935,22.359742)" />
    <linearGradient
       x1="-314.06058"
       y1="208.88521"
       x2="-317.98282"
       y2="219.09076"
       id="linearGradient2277"
       xlink:href="#linearGradient3249"
       gradientUnits="userSpaceOnUse" />
    <linearGradient
       x1="-332.39798"
       y1="197.18094"
       x2="-333.76141"
       y2="202.17006"
       id="linearGradient2279"
       xlink:href="#linearGradient3249"
       gradientUnits="userSpaceOnUse" />
    <linearGradient
       x1="-378.99609"
       y1="184.50377"
       x2="-380.9317"
       y2="189.93835"
       id="linearGradient2281"
       xlink:href="#linearGradient3249"
       gradientUnits="userSpaceOnUse" />
    <linearGradient
       x1="-378.99609"
       y1="184.50377"
       x2="-381.23193"
       y2="191.15224"
       id="linearGradient2283"
       xlink:href="#linearGradient3249"
       gradientUnits="userSpaceOnUse"
       gradientTransform="matrix(0.5248595,0.1146302,0.036197,0.3508621,-216.76051,153.25157)" />
    <linearGradient
       x1="-378.99609"
       y1="184.50377"
       x2="-381.23193"
       y2="191.15224"
       id="linearGradient2285"
       xlink:href="#linearGradient3249"
       gradientUnits="userSpaceOnUse"
       gradientTransform="matrix(0.4143867,0.05847172,0.00771036,0.3356828,-252.3959,139.00815)" />
    <linearGradient
       x1="-400.44263"
       y1="179.09914"
       x2="-403.08856"
       y2="186.76353"
       id="linearGradient2287"
       xlink:href="#linearGradient3249"
       gradientUnits="userSpaceOnUse"
       gradientTransform="rotate(-0.68710986,-415.80869,175.41891)" />
    <linearGradient
       x1="-400.44263"
       y1="179.09914"
       x2="-403.08856"
       y2="186.76353"
       id="linearGradient2289"
       xlink:href="#linearGradient3249"
       gradientUnits="userSpaceOnUse"
       gradientTransform="matrix(1.1209905,-0.1001961,0.1001961,1.1209905,51.387537,-54.461153)" />
    <linearGradient
       x1="-400.44263"
       y1="179.09914"
       x2="-403.08856"
       y2="186.76353"
       id="linearGradient2291"
       xlink:href="#linearGradient3249"
       gradientUnits="userSpaceOnUse"
       gradientTransform="matrix(1.1209905,-0.1001961,0.1001961,1.1209905,69.542592,-48.732859)" />
    <linearGradient
       x1="-400.44263"
       y1="179.09914"
       x2="-403.08856"
       y2="186.76353"
       id="linearGradient2293"
       xlink:href="#linearGradient3249"
       gradientUnits="userSpaceOnUse"
       gradientTransform="matrix(0.820453,-0.00983961,0.00983961,0.820453,-89.492935,22.359742)" />
    <linearGradient
       x1="-314.06058"
       y1="208.88521"
       x2="-317.98282"
       y2="219.09076"
       id="linearGradient2259-8"
       xlink:href="#linearGradient3249"
       gradientUnits="userSpaceOnUse"
       gradientTransform="translate(939.54186,188.80321)" />
    <linearGradient
       x1="-332.39798"
       y1="197.18094"
       x2="-333.76141"
       y2="202.17006"
       id="linearGradient2261-1"
       xlink:href="#linearGradient3249"
       gradientUnits="userSpaceOnUse"
       gradientTransform="translate(939.54186,188.80321)" />
    <linearGradient
       x1="-378.99609"
       y1="184.50377"
       x2="-380.9317"
       y2="189.93835"
       id="linearGradient2263-6"
       xlink:href="#linearGradient3249"
       gradientUnits="userSpaceOnUse"
       gradientTransform="translate(939.54186,188.80321)" />
    <inkscape:perspective
       id="perspective377"
       inkscape:persp3d-origin="50 : 75.456667 : 1"
       inkscape:vp_z="100 : 113.185 : 1"
       inkscape:vp_y="0 : 1000 : 0"
       inkscape:vp_x="0 : 113.185 : 1"
       sodipodi:type="inkscape:persp3d" />
    <linearGradient
       id="linearGradient4301">
      <stop
         id="stop4305"
         offset="0"
         style="stop-color:#e9de94;stop-opacity:1" />
      <stop
         id="stop4307"
         offset="1"
         style="stop-color:#c38c00;stop-opacity:1" />
    </linearGradient>
    <radialGradient
       gradientTransform="matrix(0.4883067,0.00549649,-0.00558469,0.4961421,26.383451,-0.3587755)"
       gradientUnits="userSpaceOnUse"
       xlink:href="#linearGradient4301"
       id="radialGradient4298"
       fy="36.15086"
       fx="31.496347"
       r="36.111145"
       cy="36.15086"
       cx="31.496347" />
    <linearGradient
       gradientUnits="userSpaceOnUse"
       xlink:href="#linearGradient15380"
       id="linearGradient15386"
       y2="436.69754"
       x2="251.7829"
       y1="1028.5834"
       x1="22.499964" />
    <linearGradient
       id="linearGradient15380">
      <stop
         id="stop15382"
         offset="0"
         style="stop-color:#ffb200;stop-opacity:1" />
      <stop
         id="stop15388"
         offset="0.11959876"
         style="stop-color:#fff0cb;stop-opacity:1" />
      <stop
         id="stop17140"
         offset="0.39780521"
         style="stop-color:#ffb600;stop-opacity:1" />
      <stop
         id="stop15390"
         offset="0.62037039"
         style="stop-color:#fff0cb;stop-opacity:1" />
      <stop
         id="stop15384"
         offset="1"
         style="stop-color:#ffb200;stop-opacity:1" />
    </linearGradient>
    <linearGradient
       gradientUnits="userSpaceOnUse"
       xlink:href="#linearGradient18015"
       id="linearGradient18021"
       y2="569.36218"
       x2="191.49995"
       y1="569.36218"
       x1="8.4999599" />
    <linearGradient
       id="linearGradient18015">
      <stop
         id="stop18017"
         offset="0"
         style="stop-color:#ffb200;stop-opacity:1" />
      <stop
         id="stop18019"
         offset="1"
         style="stop-color:#ffffff;stop-opacity:1" />
    </linearGradient>
    <linearGradient
       gradientUnits="userSpaceOnUse"
       xlink:href="#linearGradient18015"
       id="linearGradient18902"
       y2="1036.3622"
       x2="191.49995"
       y1="1036.3622"
       x1="8.4999599" />
    <inkscape:perspective
       id="perspective377-9"
       inkscape:persp3d-origin="50 : 75.456667 : 1"
       inkscape:vp_z="100 : 113.185 : 1"
       inkscape:vp_y="0 : 1000 : 0"
       inkscape:vp_x="0 : 113.185 : 1"
       sodipodi:type="inkscape:persp3d" />
    <radialGradient
       gradientTransform="matrix(0.4883067,0.00549649,-0.00558469,0.4961421,26.383451,-0.3587755)"
       gradientUnits="userSpaceOnUse"
       xlink:href="#linearGradient4301"
       id="radialGradient4298-2"
       fy="36.15086"
       fx="31.496347"
       r="36.111145"
       cy="36.15086"
       cx="31.496347" />
    <inkscape:perspective
       id="perspective3549"
       inkscape:persp3d-origin="0.5 : 0.33333334 : 1"
       inkscape:vp_z="1 : 0.50000001 : 1"
       inkscape:vp_y="0 : 1000 : 0"
       inkscape:vp_x="0 : 0.50000001 : 1"
       sodipodi:type="inkscape:persp3d" />
    <inkscape:perspective
       sodipodi:type="inkscape:persp3d"
       inkscape:vp_x="0 : 219.00001 : 1"
       inkscape:vp_y="0 : 1000 : 0"
       inkscape:vp_z="433 : 219.00001 : 1"
       inkscape:persp3d-origin="216.5 : 146 : 1"
       id="perspective466" />
    <inkscape:perspective
       sodipodi:type="inkscape:persp3d"
       inkscape:vp_x="0 : 0.50000001 : 1"
       inkscape:vp_y="0 : 1000 : 0"
       inkscape:vp_z="1 : 0.50000001 : 1"
       inkscape:persp3d-origin="0.5 : 0.33333334 : 1"
       id="perspective3193" />
    <radialGradient
       r="36.111145"
       fy="36.15086"
       fx="31.496347"
       cy="36.15086"
       cx="31.496347"
       gradientTransform="matrix(0.4883067,0.00549649,-0.00558469,0.4961421,26.383451,-0.3587755)"
       gradientUnits="userSpaceOnUse"
       id="radialGradient3538-2"
       xlink:href="#linearGradient4301"
       inkscape:collect="always" />
    <inkscape:perspective
       sodipodi:type="inkscape:persp3d"
       inkscape:vp_x="0 : 0.50000001 : 1"
       inkscape:vp_y="0 : 1000 : 0"
       inkscape:vp_z="1 : 0.50000001 : 1"
       inkscape:persp3d-origin="0.5 : 0.33333334 : 1"
       id="perspective3483" />
    <filter
       style="color-interpolation-filters:sRGB"
       height="1"
       y="0"
       width="1"
       x="0"
       inkscape:menu-tooltip="Light areas turn to black"
       inkscape:menu="Color"
       inkscape:label="Black Light"
       id="filter3877">
      <feColorMatrix
         result="result2"
         type="luminanceToAlpha"
         id="feColorMatrix3879" />
      <feComposite
         k4="0"
         k2="0"
         k1="0"
         result="result4"
         k3="2"
         in="result2"
         operator="arithmetic"
         in2="SourceGraphic"
         id="feComposite3881" />
      <feBlend
         result="result3"
         mode="multiply"
         in="result4"
         in2="result2"
         id="feBlend3883" />
      <feComposite
         in="result3"
         operator="in"
         in2="SourceGraphic"
         id="feComposite3885" />
    </filter>
    <radialGradient
       cx="31.496347"
       cy="36.15086"
       r="36.111145"
       fx="31.496347"
       fy="36.15086"
       id="radialGradient4298-5"
       xlink:href="#linearGradient4301"
       gradientUnits="userSpaceOnUse"
       gradientTransform="matrix(0.4883067,0.00549649,-0.00558469,0.4961421,26.383451,-0.3587755)" />
    <inkscape:perspective
       sodipodi:type="inkscape:persp3d"
       inkscape:vp_x="0 : 113.185 : 1"
       inkscape:vp_y="0 : 1000 : 0"
       inkscape:vp_z="100 : 113.185 : 1"
       inkscape:persp3d-origin="50 : 75.456667 : 1"
       id="perspective377-94" />
    <linearGradient
       gradientUnits="userSpaceOnUse"
       xlink:href="#linearGradient3249"
       id="linearGradient2259-1"
       y2="219.09076"
       x2="-317.98282"
       y1="208.88521"
       x1="-314.06058" />
    <linearGradient
       gradientUnits="userSpaceOnUse"
       xlink:href="#linearGradient3249"
       id="linearGradient2261-0"
       y2="202.17006"
       x2="-333.76141"
       y1="197.18094"
       x1="-332.39798" />
    <linearGradient
       gradientUnits="userSpaceOnUse"
       xlink:href="#linearGradient3249"
       id="linearGradient2263-2"
       y2="189.93835"
       x2="-380.9317"
       y1="184.50377"
       x1="-378.99609" />
    <linearGradient
       gradientTransform="matrix(0.5248595,0.1146302,0.036197,0.3508621,-216.76051,153.25157)"
       gradientUnits="userSpaceOnUse"
       xlink:href="#linearGradient3249"
       id="linearGradient2265-6"
       y2="191.15224"
       x2="-381.23193"
       y1="184.50377"
       x1="-378.99609" />
    <linearGradient
       gradientTransform="matrix(0.4143867,0.05847172,0.00771036,0.3356828,-252.3959,139.00815)"
       gradientUnits="userSpaceOnUse"
       xlink:href="#linearGradient3249"
       id="linearGradient2267-7"
       y2="191.15224"
       x2="-381.23193"
       y1="184.50377"
       x1="-378.99609" />
    <linearGradient
       gradientTransform="rotate(-0.68710986,-415.80869,175.41891)"
       gradientUnits="userSpaceOnUse"
       xlink:href="#linearGradient3249"
       id="linearGradient2269-5"
       y2="186.76353"
       x2="-403.08856"
       y1="179.09914"
       x1="-400.44263" />
    <linearGradient
       gradientTransform="matrix(0.820453,-0.00983961,0.00983961,0.820453,-89.492935,22.359742)"
       gradientUnits="userSpaceOnUse"
       xlink:href="#linearGradient3249"
       id="linearGradient2275-2"
       y2="186.76353"
       x2="-403.08856"
       y1="179.09914"
       x1="-400.44263" />
    <linearGradient
       gradientUnits="userSpaceOnUse"
       xlink:href="#linearGradient3249"
       id="linearGradient2259-7"
       y2="219.09076"
       x2="-317.98282"
       y1="208.88521"
       x1="-314.06058" />
    <linearGradient
       gradientUnits="userSpaceOnUse"
       xlink:href="#linearGradient3249"
       id="linearGradient2261-16"
       y2="202.17006"
       x2="-333.76141"
       y1="197.18094"
       x1="-332.39798" />
    <linearGradient
       gradientUnits="userSpaceOnUse"
       xlink:href="#linearGradient3249"
       id="linearGradient2263-23"
       y2="189.93835"
       x2="-380.9317"
       y1="184.50377"
       x1="-378.99609" />
    <linearGradient
       gradientTransform="matrix(0.5248595,0.1146302,0.036197,0.3508621,-216.76051,153.25157)"
       gradientUnits="userSpaceOnUse"
       xlink:href="#linearGradient3249"
       id="linearGradient2265-2"
       y2="191.15224"
       x2="-381.23193"
       y1="184.50377"
       x1="-378.99609" />
    <linearGradient
       gradientTransform="matrix(0.4143867,0.05847172,0.00771036,0.3356828,-252.3959,139.00815)"
       gradientUnits="userSpaceOnUse"
       xlink:href="#linearGradient3249"
       id="linearGradient2267-4"
       y2="191.15224"
       x2="-381.23193"
       y1="184.50377"
       x1="-378.99609" />
    <linearGradient
       gradientTransform="rotate(-0.68710986,-415.80869,175.41891)"
       gradientUnits="userSpaceOnUse"
       xlink:href="#linearGradient3249"
       id="linearGradient2269-50"
       y2="186.76353"
       x2="-403.08856"
       y1="179.09914"
       x1="-400.44263" />
    <linearGradient
       gradientTransform="matrix(0.820453,-0.00983961,0.00983961,0.820453,-89.492935,22.359742)"
       gradientUnits="userSpaceOnUse"
       xlink:href="#linearGradient3249"
       id="linearGradient2275-0"
       y2="186.76353"
       x2="-403.08856"
       y1="179.09914"
       x1="-400.44263" />
    <linearGradient
       gradientUnits="userSpaceOnUse"
       xlink:href="#linearGradient3249"
       id="linearGradient2259-78"
       y2="219.09076"
       x2="-317.98282"
       y1="208.88521"
       x1="-314.06058" />
    <linearGradient
       gradientUnits="userSpaceOnUse"
       xlink:href="#linearGradient3249"
       id="linearGradient2261-5"
       y2="202.17006"
       x2="-333.76141"
       y1="197.18094"
       x1="-332.39798" />
    <linearGradient
       gradientUnits="userSpaceOnUse"
       xlink:href="#linearGradient3249"
       id="linearGradient2263-5"
       y2="189.93835"
       x2="-380.9317"
       y1="184.50377"
       x1="-378.99609" />
    <linearGradient
       gradientTransform="matrix(0.5248595,0.1146302,0.036197,0.3508621,-216.76051,153.25157)"
       gradientUnits="userSpaceOnUse"
       xlink:href="#linearGradient3249"
       id="linearGradient2265-8"
       y2="191.15224"
       x2="-381.23193"
       y1="184.50377"
       x1="-378.99609" />
    <linearGradient
       gradientTransform="matrix(0.4143867,0.05847172,0.00771036,0.3356828,-252.3959,139.00815)"
       gradientUnits="userSpaceOnUse"
       xlink:href="#linearGradient3249"
       id="linearGradient2267-2"
       y2="191.15224"
       x2="-381.23193"
       y1="184.50377"
       x1="-378.99609" />
    <linearGradient
       gradientTransform="rotate(-0.68710986,-415.80869,175.41891)"
       gradientUnits="userSpaceOnUse"
       xlink:href="#linearGradient3249"
       id="linearGradient2269-7"
       y2="186.76353"
       x2="-403.08856"
       y1="179.09914"
       x1="-400.44263" />
    <linearGradient
       gradientTransform="matrix(0.820453,-0.00983961,0.00983961,0.820453,-89.492935,22.359742)"
       gradientUnits="userSpaceOnUse"
       xlink:href="#linearGradient3249"
       id="linearGradient2275-5"
       y2="186.76353"
       x2="-403.08856"
       y1="179.09914"
       x1="-400.44263" />
    <linearGradient
       gradientUnits="userSpaceOnUse"
       xlink:href="#linearGradient3249"
       id="linearGradient2259-5"
       y2="219.09076"
       x2="-317.98282"
       y1="208.88521"
       x1="-314.06058" />
    <linearGradient
       gradientUnits="userSpaceOnUse"
       xlink:href="#linearGradient3249"
       id="linearGradient2261-3"
       y2="202.17006"
       x2="-333.76141"
       y1="197.18094"
       x1="-332.39798" />
    <linearGradient
       gradientUnits="userSpaceOnUse"
       xlink:href="#linearGradient3249"
       id="linearGradient2263-8"
       y2="189.93835"
       x2="-380.9317"
       y1="184.50377"
       x1="-378.99609" />
    <linearGradient
       gradientTransform="matrix(0.5248595,0.1146302,0.036197,0.3508621,-216.76051,153.25157)"
       gradientUnits="userSpaceOnUse"
       xlink:href="#linearGradient3249"
       id="linearGradient2265-9"
       y2="191.15224"
       x2="-381.23193"
       y1="184.50377"
       x1="-378.99609" />
    <linearGradient
       gradientTransform="matrix(0.4143867,0.05847172,0.00771036,0.3356828,-252.3959,139.00815)"
       gradientUnits="userSpaceOnUse"
       xlink:href="#linearGradient3249"
       id="linearGradient2267-8"
       y2="191.15224"
       x2="-381.23193"
       y1="184.50377"
       x1="-378.99609" />
    <linearGradient
       gradientTransform="rotate(-0.68710986,-415.80869,175.41891)"
       gradientUnits="userSpaceOnUse"
       xlink:href="#linearGradient3249"
       id="linearGradient2269-8"
       y2="186.76353"
       x2="-403.08856"
       y1="179.09914"
       x1="-400.44263" />
    <linearGradient
       gradientTransform="matrix(0.820453,-0.00983961,0.00983961,0.820453,-89.492935,22.359742)"
       gradientUnits="userSpaceOnUse"
       xlink:href="#linearGradient3249"
       id="linearGradient2275-6"
       y2="186.76353"
       x2="-403.08856"
       y1="179.09914"
       x1="-400.44263" />
    <linearGradient
       gradientUnits="userSpaceOnUse"
       xlink:href="#linearGradient3249"
       id="linearGradient4445"
       y2="219.09076"
       x2="-317.98282"
       y1="208.88521"
       x1="-314.06058" />
    <linearGradient
       gradientUnits="userSpaceOnUse"
       xlink:href="#linearGradient3249"
       id="linearGradient4447"
       y2="202.17006"
       x2="-333.76141"
       y1="197.18094"
       x1="-332.39798" />
    <linearGradient
       gradientUnits="userSpaceOnUse"
       xlink:href="#linearGradient3249"
       id="linearGradient4449"
       y2="189.93835"
       x2="-380.9317"
       y1="184.50377"
       x1="-378.99609" />
    <linearGradient
       gradientTransform="matrix(0.5248595,0.1146302,0.036197,0.3508621,-216.76051,153.25157)"
       gradientUnits="userSpaceOnUse"
       xlink:href="#linearGradient3249"
       id="linearGradient4451"
       y2="191.15224"
       x2="-381.23193"
       y1="184.50377"
       x1="-378.99609" />
    <linearGradient
       gradientTransform="matrix(0.4143867,0.05847172,0.00771036,0.3356828,-252.3959,139.00815)"
       gradientUnits="userSpaceOnUse"
       xlink:href="#linearGradient3249"
       id="linearGradient4453"
       y2="191.15224"
       x2="-381.23193"
       y1="184.50377"
       x1="-378.99609" />
    <linearGradient
       gradientTransform="rotate(-0.68710986,-415.80869,175.41891)"
       gradientUnits="userSpaceOnUse"
       xlink:href="#linearGradient3249"
       id="linearGradient4455"
       y2="186.76353"
       x2="-403.08856"
       y1="179.09914"
       x1="-400.44263" />
    <linearGradient
       gradientTransform="matrix(0.820453,-0.00983961,0.00983961,0.820453,-89.492935,22.359742)"
       gradientUnits="userSpaceOnUse"
       xlink:href="#linearGradient3249"
       id="linearGradient4461"
       y2="186.76353"
       x2="-403.08856"
       y1="179.09914"
       x1="-400.44263" />
    <linearGradient
       gradientUnits="userSpaceOnUse"
       xlink:href="#linearGradient3249"
       id="linearGradient3330"
       y2="367.50833"
       x2="-313.94922"
       y1="330.00833"
       x1="-356.41663" />
    <inkscape:perspective
       sodipodi:type="inkscape:persp3d"
       inkscape:vp_x="0 : 113.185 : 1"
       inkscape:vp_y="0 : 1000 : 0"
       inkscape:vp_z="100 : 113.185 : 1"
       inkscape:persp3d-origin="50 : 75.456667 : 1"
       id="perspective377-4" />
    <radialGradient
       cx="31.496347"
       cy="36.15086"
       r="36.111145"
       fx="31.496347"
       fy="36.15086"
       id="radialGradient4298-91"
       xlink:href="#linearGradient4301"
       gradientUnits="userSpaceOnUse"
       gradientTransform="matrix(0.4883067,0.00549649,-0.00558469,0.4961421,26.383451,-0.3587755)" />
    <inkscape:perspective
       sodipodi:type="inkscape:persp3d"
       inkscape:vp_x="0 : 113.185 : 1"
       inkscape:vp_y="0 : 1000 : 0"
       inkscape:vp_z="100 : 113.185 : 1"
       inkscape:persp3d-origin="50 : 75.456667 : 1"
       id="perspective377-9-4" />
    <radialGradient
       cx="31.496347"
       cy="36.15086"
       r="36.111145"
       fx="31.496347"
       fy="36.15086"
       id="radialGradient4298-2-3"
       xlink:href="#linearGradient4301"
       gradientUnits="userSpaceOnUse"
       gradientTransform="matrix(0.4883067,0.00549649,-0.00558469,0.4961421,26.383451,-0.3587755)" />
    <inkscape:perspective
       sodipodi:type="inkscape:persp3d"
       inkscape:vp_x="0 : 0.50000001 : 1"
       inkscape:vp_y="0 : 1000 : 0"
       inkscape:vp_z="1 : 0.50000001 : 1"
       inkscape:persp3d-origin="0.5 : 0.33333334 : 1"
       id="perspective3549-0" />
    <inkscape:perspective
       id="perspective466-8"
       inkscape:persp3d-origin="216.5 : 146 : 1"
       inkscape:vp_z="433 : 219.00001 : 1"
       inkscape:vp_y="0 : 1000 : 0"
       inkscape:vp_x="0 : 219.00001 : 1"
       sodipodi:type="inkscape:persp3d" />
    <inkscape:perspective
       id="perspective3193-0"
       inkscape:persp3d-origin="0.5 : 0.33333334 : 1"
       inkscape:vp_z="1 : 0.50000001 : 1"
       inkscape:vp_y="0 : 1000 : 0"
       inkscape:vp_x="0 : 0.50000001 : 1"
       sodipodi:type="inkscape:persp3d" />
    <radialGradient
       inkscape:collect="always"
       xlink:href="#linearGradient4301"
       id="radialGradient3538-2-3"
       gradientUnits="userSpaceOnUse"
       gradientTransform="matrix(0.4883067,0.00549649,-0.00558469,0.4961421,26.383451,-0.3587755)"
       cx="31.496347"
       cy="36.15086"
       fx="31.496347"
       fy="36.15086"
       r="36.111145" />
    <inkscape:perspective
       id="perspective3483-4"
       inkscape:persp3d-origin="0.5 : 0.33333334 : 1"
       inkscape:vp_z="1 : 0.50000001 : 1"
       inkscape:vp_y="0 : 1000 : 0"
       inkscape:vp_x="0 : 0.50000001 : 1"
       sodipodi:type="inkscape:persp3d" />
    <filter
       id="filter3877-6"
       inkscape:label="Black Light"
       inkscape:menu="Color"
       inkscape:menu-tooltip="Light areas turn to black"
       x="0"
       width="1"
       y="0"
       height="1"
       style="color-interpolation-filters:sRGB">
      <feColorMatrix
         id="feColorMatrix3879-0"
         type="luminanceToAlpha"
         result="result2" />
      <feComposite
         id="feComposite3881-3"
         in2="SourceGraphic"
         operator="arithmetic"
         in="result2"
         k3="2"
         result="result4"
         k1="0"
         k2="0"
         k4="0" />
      <feBlend
         id="feBlend3883-3"
         in2="result2"
         in="result4"
         mode="multiply"
         result="result3" />
      <feComposite
         id="feComposite3885-1"
         in2="SourceGraphic"
         operator="in"
         in="result3" />
    </filter>
    <radialGradient
       gradientTransform="matrix(0.4883067,0.00549649,-0.00558469,0.4961421,26.383451,-0.3587755)"
       gradientUnits="userSpaceOnUse"
       xlink:href="#linearGradient4301"
       id="radialGradient4298-5-0"
       fy="36.15086"
       fx="31.496347"
       r="36.111145"
       cy="36.15086"
       cx="31.496347" />
    <inkscape:perspective
       id="perspective377-94-7"
       inkscape:persp3d-origin="50 : 75.456667 : 1"
       inkscape:vp_z="100 : 113.185 : 1"
       inkscape:vp_y="0 : 1000 : 0"
       inkscape:vp_x="0 : 113.185 : 1"
       sodipodi:type="inkscape:persp3d" />
    <inkscape:perspective
       id="perspective377-3"
       inkscape:persp3d-origin="50 : 75.456667 : 1"
       inkscape:vp_z="100 : 113.185 : 1"
       inkscape:vp_y="0 : 1000 : 0"
       inkscape:vp_x="0 : 113.185 : 1"
       sodipodi:type="inkscape:persp3d" />
    <radialGradient
       gradientTransform="matrix(0.4883067,0.00549649,-0.00558469,0.4961421,26.383451,-0.3587755)"
       gradientUnits="userSpaceOnUse"
       xlink:href="#linearGradient4301"
       id="radialGradient4298-9"
       fy="36.15086"
       fx="31.496347"
       r="36.111145"
       cy="36.15086"
       cx="31.496347" />
    <inkscape:perspective
       id="perspective377-9-2"
       inkscape:persp3d-origin="50 : 75.456667 : 1"
       inkscape:vp_z="100 : 113.185 : 1"
       inkscape:vp_y="0 : 1000 : 0"
       inkscape:vp_x="0 : 113.185 : 1"
       sodipodi:type="inkscape:persp3d" />
    <radialGradient
       gradientTransform="matrix(0.4883067,0.00549649,-0.00558469,0.4961421,26.383451,-0.3587755)"
       gradientUnits="userSpaceOnUse"
       xlink:href="#linearGradient4301"
       id="radialGradient4298-2-7"
       fy="36.15086"
       fx="31.496347"
       r="36.111145"
       cy="36.15086"
       cx="31.496347" />
    <inkscape:perspective
       id="perspective3549-3"
       inkscape:persp3d-origin="0.5 : 0.33333334 : 1"
       inkscape:vp_z="1 : 0.50000001 : 1"
       inkscape:vp_y="0 : 1000 : 0"
       inkscape:vp_x="0 : 0.50000001 : 1"
       sodipodi:type="inkscape:persp3d" />
    <inkscape:perspective
       sodipodi:type="inkscape:persp3d"
       inkscape:vp_x="0 : 219.00001 : 1"
       inkscape:vp_y="0 : 1000 : 0"
       inkscape:vp_z="433 : 219.00001 : 1"
       inkscape:persp3d-origin="216.5 : 146 : 1"
       id="perspective466-4" />
    <inkscape:perspective
       sodipodi:type="inkscape:persp3d"
       inkscape:vp_x="0 : 0.50000001 : 1"
       inkscape:vp_y="0 : 1000 : 0"
       inkscape:vp_z="1 : 0.50000001 : 1"
       inkscape:persp3d-origin="0.5 : 0.33333334 : 1"
       id="perspective3193-4" />
    <radialGradient
       r="36.111145"
       fy="36.15086"
       fx="31.496347"
       cy="36.15086"
       cx="31.496347"
       gradientTransform="matrix(0.4883067,0.00549649,-0.00558469,0.4961421,26.383451,-0.3587755)"
       gradientUnits="userSpaceOnUse"
       id="radialGradient3538-2-1"
       xlink:href="#linearGradient4301"
       inkscape:collect="always" />
    <inkscape:perspective
       sodipodi:type="inkscape:persp3d"
       inkscape:vp_x="0 : 0.50000001 : 1"
       inkscape:vp_y="0 : 1000 : 0"
       inkscape:vp_z="1 : 0.50000001 : 1"
       inkscape:persp3d-origin="0.5 : 0.33333334 : 1"
       id="perspective3483-1" />
    <filter
       style="color-interpolation-filters:sRGB"
       height="1"
       y="0"
       width="1"
       x="0"
       inkscape:menu-tooltip="Light areas turn to black"
       inkscape:menu="Color"
       inkscape:label="Black Light"
       id="filter3877-0">
      <feColorMatrix
         result="result2"
         type="luminanceToAlpha"
         id="feColorMatrix3879-3" />
      <feComposite
         k4="0"
         k2="0"
         k1="0"
         result="result4"
         k3="2"
         in="result2"
         operator="arithmetic"
         in2="SourceGraphic"
         id="feComposite3881-2" />
      <feBlend
         result="result3"
         mode="multiply"
         in="result4"
         in2="result2"
         id="feBlend3883-7" />
      <feComposite
         in="result3"
         operator="in"
         in2="SourceGraphic"
         id="feComposite3885-3" />
    </filter>
    <radialGradient
       cx="31.496347"
       cy="36.15086"
       r="36.111145"
       fx="31.496347"
       fy="36.15086"
       id="radialGradient4298-5-7"
       xlink:href="#linearGradient4301"
       gradientUnits="userSpaceOnUse"
       gradientTransform="matrix(0.4883067,0.00549649,-0.00558469,0.4961421,26.383451,-0.3587755)" />
    <inkscape:perspective
       sodipodi:type="inkscape:persp3d"
       inkscape:vp_x="0 : 113.185 : 1"
       inkscape:vp_y="0 : 1000 : 0"
       inkscape:vp_z="100 : 113.185 : 1"
       inkscape:persp3d-origin="50 : 75.456667 : 1"
       id="perspective377-94-1" />
  </defs>
  <g
     id="g4883"
     transform="translate(-636.05879,557.12603)"
     style="fill:#f6d140;fill-opacity:1;stroke:#d4aa00;stroke-opacity:1">
    <path
       id="path2216-7"
       style="fill:#d40000;fill-opacity:1;fill-rule:evenodd;stroke:#aa0000;stroke-width:1px;stroke-linecap:butt;stroke-linejoin:miter;stroke-opacity:1"
       d="M 636.55879,22.042358 V -350.4423 c 85.79504,-58.95342 138.16999,-122.83464 187.24199,-205.70244 49.072,82.8678 101.44695,146.74902 187.24202,205.70244 V 22.042358 c -109.01086,78.175932 -267.5953,76.51305 -374.48401,0 z"
       inkscape:connector-curvature="0" />
    <path
       id="path3238-9"
       style="fill:#f6d140;fill-opacity:1;fill-rule:evenodd;stroke:#d4aa00;stroke-width:1px;stroke-linecap:butt;stroke-linejoin:miter;stroke-opacity:1"
       d="m 823.80113,-453.45522 c -45.44107,59.71937 -96.88673,121.25774 -163.31274,166.36451 v -49.98973 c 74.44634,-60.93368 124.48605,-121.58378 163.31274,-186.42944 38.82669,64.84569 88.8664,125.49579 163.31274,186.42947 v 49.98973 C 920.68786,-332.19745 869.2422,-393.73585 823.80113,-453.45522 Z"
       inkscape:connector-curvature="0" />
    <path
       id="path2336-6"
       style="fill:#f6d140;fill-opacity:1;fill-rule:evenodd;stroke:#d4aa00;stroke-width:1px;stroke-linecap:butt;stroke-linejoin:miter;stroke-opacity:1"
       d="m 660.48839,-219.09071 v -50 c 66.42601,-45.10677 117.87167,-106.64514 163.31274,-166.36451 45.44107,59.71937 96.88673,121.25777 163.31274,166.36454 v 50 c -66.42601,-45.10677 -117.87167,-96.64517 -163.31274,-156.36454 -45.44107,59.71937 -96.88673,111.25774 -163.31274,156.36451 z"
       inkscape:connector-curvature="0" />
    <path
       id="path2274-5"
       style="fill:#f6d140;fill-opacity:1;fill-rule:evenodd;stroke:#d4aa00;stroke-width:1px;stroke-linecap:butt;stroke-linejoin:miter;stroke-opacity:1"
       d="m 823.81416,-297.28212 c 35.86526,47.13468 83.98852,85.6613 131.76715,120.33395 -54.38305,95.486048 -200.93651,96.292288 -263.04549,0 47.77863,-34.67265 95.41308,-73.19927 131.27834,-120.33395 z m -0.002,-60.02857 c 45.44107,59.71937 97.39026,109.23821 163.81627,154.34498 l -0.002,45.99985 c -96.61815,114.488628 -234.36463,111.582738 -327.13635,0 l -0.002,-45.99985 c 66.42632,-45.10677 117.88332,-94.62561 163.32439,-154.34498 z"
       inkscape:connector-curvature="0" />
    <path
       id="path2226-3"
       style="fill:#f6d140;fill-opacity:1;fill-rule:evenodd;stroke:#d4aa00;stroke-width:1px;stroke-linecap:butt;stroke-linejoin:miter;stroke-opacity:1"
       d="m 660.49039,-142.96586 v 43.999998 c 47.11814,47.538356 105.83776,70.664601 164.87818,69.786621 57.20529,-0.850689 114.71173,-24.236571 162.25817,-69.786621 v -43.999998 c -47.79226,54.983583 -105.64779,81.912504 -163.14544,82.058478 -58.74117,0.149131 -117.10881,-27.655703 -163.99091,-82.058478 z"
       inkscape:connector-curvature="0"
       sodipodi:nodetypes="ccsccsc" />
    <path
       id="path2209-7"
       style="fill:#f6d140;fill-opacity:1;fill-rule:evenodd;stroke:#d4aa00;stroke-width:1px;stroke-linecap:butt;stroke-linejoin:miter;stroke-opacity:1"
       d="m 660.49039,-42.965862 v -44 c 46.88102,47.299128 105.24707,70.431226 163.98687,69.798052 57.49898,-0.619798 115.3561,-24.011426 163.14948,-69.798052 v 44 C 939.52389,-4.9175669 881.22656,14.513806 823.36038,14.841324 764.99803,15.17165 707.07427,-3.9308898 660.49039,-42.965862 Z"
       inkscape:connector-curvature="0"
       sodipodi:nodetypes="ccsccsc" />
    <path
       id="path2220-2"
       style="fill:#f6d140;fill-opacity:1;fill-rule:evenodd;stroke:#d4aa00;stroke-width:1px;stroke-linecap:butt;stroke-linejoin:miter;stroke-opacity:1"
       d="m 660.49039,13.034138 v -44 C 707.07414,8.0690043 764.99772,27.171547 823.3599,26.841327 881.22624,26.513912 939.52376,7.0825372 987.62674,-30.965862 v 44 C 939.25189,44.463286 880.11338,60.400786 821.35022,60.238659 763.90233,60.080162 706.81316,44.534675 660.49039,13.034138 Z"
       inkscape:connector-curvature="0"
       sodipodi:nodetypes="ccsccsc" />
    <path
       id="path2166"
       style="fill:#f6d140;fill-opacity:1;stroke:#d4aa00;stroke-width:1;stroke-linecap:round;stroke-linejoin:miter;stroke-miterlimit:4;stroke-dashoffset:0;stroke-opacity:1;stroke-dasharray:none"
       d="m 918.12456,-184.15892 3.89703,11.72973 12.35988,0.0816 -9.9514,7.33098 3.74181,11.78017 -10.04732,-7.19895 -10.04732,7.19895 3.7418,-11.78017 -9.95139,-7.33098 12.35989,-0.0816 z"
       inkscape:connector-curvature="0" />
    <path
       id="path3498"
       style="fill:#f6d140;fill-opacity:1;stroke:#d4aa00;stroke-opacity:1"
       d="m 841.8609,-241.34526 c -0.33405,0.83512 -0.2192,2.11563 -1.16569,2.50536 -0.33404,0.0557 -0.89077,0.32709 -1.11349,-0.17398 -0.77944,-1.39187 -2.39749,-1.61109 -3.84503,-1.44407 -3.78587,0.77945 -7.89537,1.61457 -12.12663,1.1135 -3.67453,-0.33405 -7.85014,-1.79203 -11.41331,-0.12179 -1.55889,0.83512 -3.06558,2.45317 -3.28828,4.1234 -0.2227,2.33834 1.05436,4.57576 3.1143,5.68926 1.67024,0.55674 3.33699,1.16916 4.78454,2.22698 0.0557,0.33405 0,0.66461 0.27837,0.88732 0.8908,0.44539 0.89079,-0.94995 1.67024,-1.0613 0.11135,0 0.40015,-0.0522 0.40017,0.22618 -1.00215,2.28266 -1.73636,4.89241 -1.23529,7.62046 0.0557,0.16703 -0.0557,0.33406 -0.27837,0.27838 -0.66809,0 -1.49972,-0.38624 -1.72243,-1.16569 -0.55675,-0.72377 -0.17051,-1.66329 0.33056,-2.33138 0.50108,-1.28051 0.17052,-2.67238 -0.60894,-3.61885 -2.00428,-2.05996 -5.11512,-0.84207 -7.34209,-0.17398 -4.11992,1.72591 -8.08327,3.78588 -12.09184,5.56746 -0.16702,0.11135 0.11831,0.16355 0.17398,0.33057 l -0.22617,0.22618 c -1.94862,1.05782 -3.89028,2.05649 -5.95023,2.83593 -0.16703,0.11135 0.0522,0.27489 0.0522,0.33057 -2.28266,1.05781 -4.73234,1.94861 -7.2377,2.50535 l -0.33057,0.22618 c 0.11135,0.16703 0.37928,0.28186 0.15659,0.50455 -2.22699,0.6681 -4.56879,1.44059 -6.90714,1.77463 -0.27837,0.0557 -0.4976,0.27838 -0.33057,0.55675 0.94647,0.94647 2.23048,0.94995 3.00991,1.89642 0.94647,1.11349 2.27571,1.61805 3.72324,1.33967 l 0.95691,0.78292 c 0.77945,0.38973 1.67371,0.10788 2.45317,0.0522 0.77944,0.4454 1.55888,1.11697 2.50536,1.0613 2.56103,-0.0557 4.78107,-0.83165 7.06372,-1.44406 0.94647,-0.27838 2.05647,-0.61243 3.1143,-0.27838 1.44754,0.6681 2.79416,-0.2888 4.01901,-0.67853 0.83512,0.44539 1.7259,0.9569 2.78373,0.67853 0.94647,0.72377 2.27572,1.05087 3.44487,0.66114 0.50107,0.33405 0.94299,0.44192 1.44406,0.60894 0.50108,0.0557 1.05435,-0.33753 1.44406,0.0522 0.61243,0.72378 1.73983,-0.0522 2.29658,0.78293 0.50108,0.38972 1.33618,0.28881 1.94862,0.12179 0.38972,0.55674 1.10655,0.70985 1.49625,1.0439 -0.16702,0.72377 -0.28186,1.39535 -0.22618,2.17479 -1.00214,0.94647 -2.22002,1.77811 -3.16649,2.83593 -1.11349,1.44754 -3.00643,2.84984 -2.50536,4.85413 0.27837,0.66809 1.00561,0.82817 1.61804,0.93951 0.16703,0.50107 0.38625,1.00215 0.33057,1.39187 -4.1756,1.83726 -8.1285,4.90632 -11.13493,8.80355 -0.38972,0.27837 -0.39318,1.00562 -0.78292,1.0613 -3.11778,4.45397 -4.78454,9.68738 -5.06292,15.31052 -0.11134,0.8908 -1.29094,0.21922 -1.79202,0.60895 -1.28052,0.38972 -1.00214,1.88946 -1.94862,2.55755 -0.72377,0.72377 -0.77246,1.67371 -0.93951,2.73154 -1.22484,0.83512 -1.21789,2.55756 -0.9395,3.94942 -0.27838,0.72377 -0.3445,1.44754 -0.12179,2.22698 0.16702,0.55675 0.66809,0.93951 0.83512,1.49626 h -0.55675 c -2.39401,-0.16702 -4.05729,-2.65847 -4.83673,-4.66275 1.05781,-0.61242 2.00775,-1.68416 2.17479,-2.85333 l 0.93951,-1.21788 c 0.38972,-0.72377 0.50455,-1.67023 0.22617,-2.50536 0.38973,-0.55675 0.60546,-1.16916 0.66114,-1.94861 0,-0.94647 -0.67156,-1.71896 -1.33967,-2.33138 0,-0.94647 -0.70986,-1.67372 -1.32227,-2.17479 0,-0.16702 0.11133,-0.27838 0.27837,-0.27837 1.67024,1.05782 3.00295,2.50883 4.50617,3.84503 0.44539,-5.28909 2.83244,-9.80569 5.67185,-14.09265 1.05782,-1.50321 2.22352,-3.0099 3.39267,-4.40177 l -0.0522,-0.0522 c -2.17131,-0.55675 -4.50615,-0.44539 -6.73315,-0.27837 -5.73449,0.66809 -10.64081,3.62232 -14.92777,7.46388 -1.11349,1.22484 -2.22697,2.50189 -2.50536,3.94942 1.55889,-0.0557 3.06558,-0.2749 4.68015,-0.0522 0.16703,0.38972 -0.33055,0.82816 -0.60894,1.21788 l -1.61804,0.17398 -1.0613,-0.0522 c -0.8908,0 -1.72244,0.26445 -2.27918,1.0439 -1.1135,0.16702 -2.22003,0.61242 -2.60975,1.67024 l -1.23529,1.18308 -0.48715,1.32228 c -1.05782,0.83511 -1.61457,1.95209 -1.67024,3.28828 l -0.34796,0.22618 c -1.05782,1.00214 -0.89079,2.67239 -0.55675,3.89722 -0.4454,0.50107 -0.55674,1.1135 -0.83512,1.67024 -0.2227,1.39187 0.55676,2.38705 1.11349,3.44487 -0.11135,1.55889 0.67157,2.73154 1.61805,3.84503 -0.0557,0.77945 0.50457,1.33968 0.78292,1.89642 -0.38972,1.16917 0.17051,2.60975 -0.33057,3.72324 -0.27837,1.22484 0.11482,2.3975 0.78293,3.28828 0.0557,1.22485 0.27143,2.57147 1.21788,3.46227 l -0.22618,0.38277 c -0.11134,0.83511 -1.77809,1.56236 -0.88731,2.45316 0.83512,0.2227 2.0043,-0.28185 2.50536,0.60894 0.50107,0.61242 1.22136,1.05782 1.16569,1.94861 0.50107,1.16917 1.78508,1.61457 2.73154,2.22699 0.0557,0.89079 0.61243,1.66328 1.39186,2.053 0.55675,0.55675 1.89296,0.12526 1.94861,1.18309 0.6681,1.44754 2.34182,2.00428 3.84504,2.22698 l 0.88731,0.83512 c 1.00214,0.6681 2.227,0.55674 3.34048,0.55675 0.50107,0.33405 1.05783,0.50107 1.67024,0.55675 1.50321,0.0557 2.78721,-0.38973 4.1234,0 0.94647,-0.0557 1.88948,-0.62634 2.55756,-1.46146 4.34262,0.66809 9.0158,1.40578 13.41411,0.34796 l 0.27837,0.15659 c -0.16702,1.89294 -0.93951,3.56318 -1.49626,5.28909 v 0.40016 c 3.11778,-1.05782 6.06508,-2.50536 8.96014,-4.1756 4.78802,-2.67238 8.96364,-7.18203 11.4133,-11.97005 l -0.0522,-0.55674 c -0.50107,-0.16703 -1.00214,-0.0661 -1.39187,0.15658 -6.7923,1.94862 -14.53804,0.50108 -20.7736,-1.67024 l -0.38276,-0.0522 c 0.61242,2.22698 1.55889,4.33566 2.50536,6.50697 l -0.17399,0.17399 c -2.67238,0.11135 -5.23342,-0.1705 -7.51607,-1.0613 l -0.22618,-1.0613 c 0.50107,-1.16917 0.22617,-2.61322 -0.33057,-3.67105 0.55675,-1.28051 0.0557,-2.9438 -0.83512,-4.00161 l -0.15659,-1.44406 -0.62634,-1.33967 c -0.50107,-0.8908 -1.7259,-1.17961 -1.67023,-2.34878 0.61242,-0.83512 1.61457,-1.32228 2.50535,-1.87902 h 0.40017 c 3.9529,4.8437 9.06454,8.45906 14.91036,10.07363 7.34906,2.05997 15.9821,0.7203 22.21767,-3.00991 l 2.27918,-1.67024 c 2.22698,-1.61456 4.29042,-3.83807 6.07201,-5.89803 1.89294,-2.95076 3.39615,-5.90152 4.45398,-9.18632 l -0.0522,-0.17398 c 1.61457,-5.45612 1.39881,-11.79954 -0.38276,-17.03296 l 0.15658,-0.10439 c 0.6681,0.27837 1.22834,0.5985 1.89642,0.76552 0.33405,0.77945 1.11351,1.67024 1.94861,1.94862 0.83512,0.50107 1.77811,0.16702 2.55756,0 l 2.45316,2.90552 c 0.8908,0.61242 0.77946,1.72591 1.39187,2.50536 0.94647,0.33404 1.11697,1.39186 1.89641,1.94861 1.3362,-0.11135 2.11911,1.21789 3.28829,1.49626 1.83726,-1.1135 3.71629,-2.10869 5.2195,-3.72325 l -0.48716,-1.94861 0.20878,-0.83512 c -0.27837,-0.83512 -0.88381,-1.67024 -1.49625,-2.22699 0.66809,-1.16916 -0.88385,-1.72591 -1.21789,-2.50535 -0.0557,-0.77945 0.15312,-1.39188 0.48716,-1.94862 0.16702,-0.55674 0.0557,-1.16569 0.27837,-1.72243 0.8908,-0.27837 1.56933,-1.284 1.79203,-2.17479 0.2227,-0.4454 -0.17049,-1.00215 0.0522,-1.39187 1.67024,-0.66809 3.34396,-1.67371 4.40178,-3.28828 1.94861,-2.56104 2.33487,-6.72968 0.60894,-9.56908 -1.94861,-3.11778 -5.34475,-4.95505 -9.18631,-4.45397 -0.83512,-0.4454 -1.94514,-0.50456 -2.83593,-0.22618 l -1.1135,-0.12179 c -0.66809,0 -1.17959,0.62633 -1.51365,1.18309 -0.55675,-0.16703 -1.21093,-0.0592 -1.60065,0.33056 -0.44539,0.4454 -0.62286,1.05782 -0.67853,1.67024 0,1.05782 0.34448,1.88947 0.95691,2.55756 -0.27838,1.11349 -0.61243,2.22351 -0.55675,3.39267 -0.11135,0.72377 0.27489,1.3362 0.0522,1.94861 -0.16703,0.11135 -0.40015,0.34449 -0.67854,0.12179 l -4.00161,-5.41088 0.0522,-0.66113 c -0.38972,-0.6681 -0.78291,-1.49975 -1.61804,-1.72244 0,-0.55674 -0.27837,-0.94995 -0.55675,-1.33967 -1.16917,-1.22484 -2.50535,-2.39748 -3.89723,-3.28828 -1.78158,0.94647 -3.43792,2.06343 -4.94112,3.28828 l -0.0696,0.27837 1.18308,2.50536 -0.50455,1.39187 c 0.27837,0.4454 0.38276,1.06129 0.93951,1.33967 0.4454,0 0.45583,0.60547 0.40016,0.93951 0.27838,0.72377 0.61241,1.56236 1.39187,1.89642 0.2227,0.44539 0.72376,0.72376 0.55675,1.11349 h -0.22618 c -0.55675,-1.05782 -1.61457,-1.72592 -2.78374,-1.67024 l -1.23528,-0.95691 c -0.50107,-0.27837 -1.16569,-0.15311 -1.72243,0.0696 l -1.44406,-0.62634 c -0.8908,0 -1.71897,0.17745 -2.33138,0.67853 l -1.67024,-0.67853 c -0.38972,-0.38973 -1.0613,-0.43149 -1.0613,-1.0439 0.0557,-0.38973 0.43844,-0.90123 0.93951,-0.67854 0.6681,-0.2227 1.49975,-0.56022 1.72244,-1.33967 0.38972,-3.56318 -3.34047,-5.73449 -5.56747,-8.07282 -0.0557,-0.55675 -0.22268,-1.16569 -0.27837,-1.72244 0.72377,-0.11135 0.89081,-1.33967 1.67024,-0.78292 0.55675,0.27837 1.01258,0 1.51365,-0.27838 0.61243,0.27838 1.55193,0.22619 2.05301,-0.33056 0.83512,-0.0557 1.89293,0.0592 2.50536,-0.60895 l 0.88731,0.17399 c 0.72377,0 1.28053,-0.27838 1.67024,-0.83512 1.00214,0.11135 1.83727,-0.22619 2.50536,-0.78293 l 2.22699,-0.78292 2.45316,1.44406 c 0.83512,0.33405 1.67374,0.99866 2.73154,0.60894 1.50321,-0.33405 3.05862,0.17051 4.50616,0.50455 2.17131,0.4454 4.56186,0.39668 6.45478,-0.66113 h 1.67024 c 1.1135,0 2.01473,-0.33058 2.90552,-0.88732 1.28052,-0.2227 2.55407,-0.50456 3.44487,-1.61804 1.16917,-0.4454 2.34876,-0.72725 3.1839,-1.89642 0.22269,-0.27837 -0.11136,-0.33752 -0.27838,-0.50455 -2.39401,-0.2227 -4.73582,-0.55326 -6.90713,-1.16569 l -0.33057,-0.27837 0.48715,-0.50455 c -2.83941,-0.94647 -5.78669,-1.67372 -8.40339,-3.00991 0,-0.16703 0.34448,-0.27141 0.12179,-0.38277 -2.28266,-1.05782 -4.57923,-2.11563 -6.75055,-3.34048 l 0.0696,-0.27837 c -3.06211,-1.44754 -6.12422,-3.28133 -9.18632,-4.78454 -2.22698,-1.22484 -5.2891,-2.56451 -7.79445,-1.0613 -1.22484,0.83512 -2.29657,2.28267 -2.29658,3.89723 -0.0557,0.94647 0.6159,1.71895 0.22618,2.60975 -0.33405,0.72377 -0.99865,0.94995 -1.72243,1.06129 -0.72377,0.11135 -1.55888,0.007 -1.94862,-0.66113 -2.00428,-2.61671 -1.49973,-6.35387 -3.39267,-9.08193 -1.67024,-1.50321 -4.23127,-2.05996 -6.40258,-1.39187 l -3.06211,0.33057 -0.83512,0.50455 -0.95691,-0.83512 c -0.61242,-0.11134 -1.38489,-0.0487 -1.77463,-0.66113 -0.50107,-0.4454 -0.89428,-1.00215 -0.78292,-1.67024 0.50107,-1.22484 1.94861,-1.17961 3.0621,-1.23528 4.621,0.61242 9.40555,1.68415 14.24923,0.90471 1.83727,-0.2227 3.39617,-1.18309 5.2891,-0.90471 1.39186,0.33405 2.63061,1.29095 4.24519,0.95691 2.61671,-0.94647 3.33353,-4.01902 3.44487,-6.52438 -0.55675,0.0557 -0.93952,0.61242 -1.49626,0.55675 -0.27837,-0.55675 -0.40017,-1.2666 -0.95691,-1.87902 z m -20.87799,15.36272 c 0.66809,0.33405 0.73073,1.21789 0.73073,2.05301 -0.2227,1.16917 -0.34449,2.45316 -1.23528,3.28828 -0.55674,-1.67023 -0.21922,-3.83807 0.50455,-5.34129 z m 52.56035,31.78675 c 0.55676,0.72377 0.72029,1.61804 0.60894,2.45316 -0.27838,-0.27838 -0.49411,-0.67157 -0.66114,-1.0613 0.16703,-0.38971 -0.0591,-1.05782 0.0522,-1.39186 z m -9.56908,9.72566 c 0.13918,0.007 0.27489,0.08 0.33056,0.19138 l 1.67024,0.88732 1.39187,0.55674 c -0.33405,0.6681 -0.67853,1.44407 -0.67853,2.27919 -0.50107,0.33405 -0.60895,-0.38277 -0.88732,-0.66114 l -2.17479,-3.06211 c 0.0557,-0.13918 0.20878,-0.19834 0.34797,-0.19138 z m -85.13002,14.5972 c -0.66809,2.50536 -1.66676,5.02116 -2.00081,7.63786 -0.22271,1.39187 -0.1705,3.00644 -0.22618,4.45398 -0.55674,0.38971 -1.05781,1.06129 -1.39186,1.61804 -1.05782,-0.55675 0.11483,-1.89642 -0.60894,-2.73154 l -0.55675,-1.06129 c 0.38971,-0.83512 0.27489,-1.89294 0.0522,-2.78374 0.83512,-0.89079 1.11002,-2.00776 0.88732,-3.28828 0.66811,-0.66809 1.22136,-1.39535 1.16569,-2.45317 0.50106,-0.27837 1.05782,-0.55326 1.39186,-1.16568 0.38972,0 0.84208,-0.003 1.28748,-0.22618 z m 18.04207,8.42079 0.10439,0.0522 c 0.27839,1.44754 0.77596,2.83593 1.16568,4.2278 -0.55675,0.61242 -1.32923,1.11349 -2.053,1.39186 -0.94647,-0.38971 0.0452,-1.17264 -0.12179,-1.89641 0.11136,-0.77944 -0.16702,-1.44059 -0.27837,-2.05301 z m -20.59962,14.85817 c 0.33403,1e-5 0.5463,0.0557 0.71333,0.27837 -1e-5,0.22271 0.0104,0.32709 -0.15659,0.38277 -0.27838,-0.2227 -0.50107,-0.38277 -0.55674,-0.66114 z m 19.86889,3.00991 1.28747,0.88732 c -0.11136,0.8908 0.16355,1.78158 0.60894,2.50536 l 0.66114,0.83511 c -0.61243,1.05783 -0.27489,2.44621 0.22618,3.39268 -2.28264,-1.72591 -3.56318,-4.28695 -3.06211,-7.23771 z m -15.36273,6.07202 c 3.89723,0.77944 6.674,3.99465 9.84746,6.05462 -0.33406,0.22269 -0.83164,0.1705 -1.16569,0.22617 -0.77943,-1.16916 -2.00429,-1.66676 -3.34048,-1.72243 -0.55673,-1.11349 -1.67372,-1.61457 -2.73154,-1.94861 -0.16703,-1.39186 -1.61804,-2.05997 -2.73153,-2.50536 z"
       inkscape:connector-curvature="0" />
    <path
       id="path6605"
       style="fill:#f6d140;fill-opacity:1;stroke:#d4aa00;stroke-width:1;stroke-linecap:round;stroke-linejoin:miter;stroke-miterlimit:4;stroke-dashoffset:0;stroke-opacity:1;stroke-dasharray:none"
       d="m 736.32802,-184.15892 3.89703,11.72973 12.35988,0.0816 -9.9514,7.33098 3.74181,11.78017 -10.04732,-7.19895 -10.04732,7.19895 3.7418,-11.78017 -9.95139,-7.33098 12.35989,-0.0816 z"
       inkscape:connector-curvature="0" />
  </g>
</svg>
